{"title":"The.World.of.Kanako.2014.720p.JAP.BDRip.x264.AC3-ADiOS","uid":12217121,"size":2683492580,"categoryP":"video","categoryS":"movies","magnet":"?xt=urn:btih:543bc469ed59240789c14ea17169b279aecb85ed&amp;dn=The.World.of.Kanako.2014.720p.JAP.BDRip.x264.AC3-ADiOS&amp;tr=udp%3A%2F%2Ftracker.openbittorrent.com%3A80&amp;tr=udp%3A%2F%2Fopen.demonii.com%3A1337&amp;tr=udp%3A%2F%2Ftracker.coppersurfer.tk%3A6969&amp;tr=udp%3A%2F%2Fexodus.desync.com%3A6969","seeders":0,"leechers":2,"uploader":"noriegaRJ","files":10,"time":1439255568,"description":"Title: Kawaki aka The World of Kanako\n\nRelease: The.World.of.Kanako.2014.720p.JAP.BDRip.x264.AC3-ADiOS\n\n\nIMDB Link:                                               &lt;a href=&quot;\nhttp://www.imdb.com/title/tt3108158/&quot; rel=&quot;nofollow&quot; target=&quot;_NEW&quot;&gt;\nhttp://www.imdb.com/title/tt3108158/&lt;/a&gt;\n\n\nPlot: Kanako, a beautiful girl and one of the best students at school, goes missing with all the belongings left behind in her room. Her father Akikazu is now asked by his ex-wife to look for their daughter. He starts a desperate search of Kanako using any means, in the hope of getting his &quot;ideal&quot; family back in place despite the fact that the very reason of the family breakup was because of his problematic personality and behaviors. Following tracks of her past and present and talking to her &quot;friends,&quot; he starts to get to know his daughter whom he never knew or didn't even attempt to know. When Akikazu is led to one clue, he realizes the world Kanako was facing beyond his imagination... Can the father find his daughter, and get back his perfect happy family he has dreamed of after all these years?\n\n\n\nGeneral\nComplete name                            : The.World.of.Kanako.2014.720p.JAP.BDRip.x264.AC3-ADiOS\nFormat                                   : Matroska\nFormat version                           : Version 2\nFile size                                : 2.50 GiB\nDuration                                 : 1h 58mn\nOverall bit rate                         : 3 007 Kbps\nEncoded date                             : UTC 2014-11-25 21:13:37\nWriting application                      : mkvmerge v5.8.0 ('No Sleep / Pillow') built on Sep  2 2012 15:37:04\nWriting library                          : Kirara Encoder\n\nVideo\nID                                       : 1\nFormat                                   : AVC\nFormat/Info                              : Advanced Video Codec\nFormat profile                           : &lt;a class=&quot;__cf_email__&quot; href=&quot;/cdn-cgi/l/email-protection&quot; data-cfemail=&quot;a8eac9dbcdc4c1c6cde8e49b8699&quot;&gt;[email&amp;#160;protected]&lt;/a&gt;&lt;script data-cfhash='f9e31' type=&quot;text/javascript&quot;&gt;\n/* &lt;![CDATA[ */!function(){try{var t=&quot;currentScript&quot;in document?document.currentScript:function(){for(var t=document.getElementsByTagName(&quot;script&quot;),e=t.length;e--;)if(t[e].getAttribute(&quot;data-cfhash&quot;))return t[e]}();if(t&amp;&amp;t.previousSibling){var e,r,n,i,c=t.previousSibling,a=c.getAttribute(&quot;data-cfemail&quot;);if(a){for(e=&quot;&quot;,r=parseInt(a.substr(0,2),16),n=2;a.length-n;n+=2)i=parseInt(a.substr(n,2),16)^r,e+=String.fromCharCode(i);e=document.createTextNode(e),c.parentNode.replaceChild(e,c)}t.parentNode.removeChild(t);}}catch(u){}}()/* ]]&gt; */&lt;/script&gt;\nFormat settings, CABAC                   : No\nFormat settings, ReFrames                : 1 frame\nMuxing mode                              : Header stripping\nCodec ID                                 : V_MPEG4/ISO/AVC\nDuration                                 : 1h 58mn\nBit rate                                 : 2 830 Kbps\nWidth                                    : 1 270 pixels\nHeight                                   : 552 pixels\nDisplay aspect ratio                     : 2.35:1\nFrame rate mode                          : Constant\nFrame rate                               : 23.976 fps\nColor space                              : YUV\nChroma subsampling                       : 4:2:0\nBit depth                                : 8 bits\nScan type                                : Progressive\nBits/(Pixel*Frame)                       : 0.168\nStream size                              : 2.29 GiB (92%)\nWriting library                          : x264 core 125\nDefault                                  : Yes\nForced                                   : No\n\nAudio\nID                                       : 2\nFormat                                   : AC-3\nFormat/Info                              : Audio Coding 3\nMode extension                           : CM (complete main)\nFormat settings, Endianness              : Big\nMuxing mode                              : Header stripping\nCodec ID                                 : A_AC3\nDuration                                 : 1h 58mn\nBit rate mode                            : Constant\nBit rate                                 : 192 Kbps\nChannel count                            : 6 channels\nChannel positions                        : Front: L C R, Side: L R, LFE\nSampling rate                            : 48.0 KHz\nBit depth                                : 16 bits\nCompression mode                         : Lossy\nDelay relative to video                  : 24ms\nStream size                              : 163 MiB (6%)\nDefault                                  : Yes\nForced                                   : No\n\n\n\nThanks to those helping me seed. Leechers remember, the community depends on you. If nobody shares, the freebies go away. Remember, the only reason you can download this free movie is because others are generous enough to keep sharing it with you. If nobody shares, everybody loses, so even if its for an extra hour or two after you get it, remember, others want to see it too, and they can't without you.\n\n\nSEE MY OTHERS UPLOADS:                                                                       &lt;a href=&quot;\nhttp://thepiratebay.se/user/noriegaRJ&quot; rel=&quot;nofollow&quot; target=&quot;_NEW&quot;&gt;\nhttp://thepiratebay.se/user/noriegaRJ&lt;/a&gt;\n\nAND SEE THIS ANOTHERS UPLOADS FROM &quot;HORiZON-ArtSubs&quot;:                       &lt;a href=&quot;\nhttp://thepiratebay.se/user/artsubs&quot; rel=&quot;nofollow&quot; target=&quot;_NEW&quot;&gt;\nhttp://thepiratebay.se/user/artsubs&lt;/a&gt;                       &lt;a href=&quot;\nhttp://thepiratebay.se/user/lletaif&quot; rel=&quot;nofollow&quot; target=&quot;_NEW&quot;&gt;\nhttp://thepiratebay.se/user/lletaif&lt;/a&gt;","torrent":{"xt":"urn:btih:543bc469ed59240789c14ea17169b279aecb85ed","amp;dn":"The.World.of.Kanako.2014.720p.JAP.BDRip.x264.AC3-ADiOS","amp;tr":["udp%3A%2F%2Ftracker.openbittorrent.com%3A80","udp%3A%2F%2Fopen.demonii.com%3A1337","udp%3A%2F%2Ftracker.coppersurfer.tk%3A6969","udp%3A%2F%2Fexodus.desync.com%3A6969"],"infoHash":"543bc469ed59240789c14ea17169b279aecb85ed","infoHashBuffer":{"type":"Buffer","data":[84,59,196,105,237,89,36,7,137,193,78,161,113,105,178,121,174,203,133,237]},"announce":[],"urlList":[]}}